HIERARCHY
ROOT Bip001_Pelvis
{
  OFFSET 34.4345 95.6767 -26.8758
  CHANNELS 6 Xposition Yposition Zposition Zrotation Xrotation Yrotation
  JOINT Bip001_Spine
  {
    OFFSET 1.4188e-005 10.2191 -0.0116013
    CHANNELS 3 Zrotation Xrotation Yrotation
    JOINT Bip001_L_Thigh
    {
      OFFSET 11.0458 -10.2192 0.0116197
      CHANNELS 3 Zrotation Xrotation Yrotation
      JOINT Bip001_L_Calf
      {
        OFFSET -0.707118 -44.0221 0.360014
        CHANNELS 3 Zrotation Xrotation Yrotation
        JOINT Bip001_L_Foot
        {
          OFFSET -0.651902 -40.5938 -3.56146
          CHANNELS 3 Zrotation Xrotation Yrotation
          JOINT Bip001_L_Toe0
          {
            OFFSET 0.0530839 -10.2181 13.1504
            CHANNELS 3 Zrotation Xrotation Yrotation
            End Site
            {
              OFFSET -1.02532e-005 0 7.55606
            }
          }
        }
      }
    }
    JOINT Bip001_R_Thigh
    {
      OFFSET -11.0458 -10.2191 0.0115893
      CHANNELS 3 Zrotation Xrotation Yrotation
      JOINT Bip001_R_Calf
      {
        OFFSET 0.706994 -44.0221 0.35984
        CHANNELS 3 Zrotation Xrotation Yrotation
        JOINT Bip001_R_Foot
        {
          OFFSET 0.651786 -40.5938 -3.5613
          CHANNELS 3 Zrotation Xrotation Yrotation
          JOINT Bip001_R_Toe0
          {
            OFFSET -0.0531479 -10.2181 13.1504
            CHANNELS 3 Zrotation Xrotation Yrotation
            End Site
            {
              OFFSET -1.02894e-005 0 7.55606
            }
          }
        }
      }
    }
    JOINT Bip001_Spine1
    {
      OFFSET 1.87041e-005 14.5736 1.08638
      CHANNELS 3 Zrotation Xrotation Yrotation
      JOINT Bip001_Spine2
      {
        OFFSET 2.24614e-005 14.5058 -1.69078
        CHANNELS 3 Zrotation Xrotation Yrotation
        JOINT Bip001_Neck
        {
          OFFSET 2.20278e-005 15.3945 -0.489414
          CHANNELS 3 Zrotation Xrotation Yrotation
          JOINT Bip001_L_Clavicle
          {
            OFFSET 6.06036 -0.000579998 0.00836775
            CHANNELS 3 Zrotation Xrotation Yrotation
            JOINT Bip001_L_UpperArm
            {
              OFFSET 11.5509 -0.0600302 0.00193952
              CHANNELS 3 Zrotation Xrotation Yrotation
              JOINT Bip001_L_Forearm
              {
                OFFSET 25.9523 0.0806089 -2.15551
                CHANNELS 3 Zrotation Xrotation Yrotation
                JOINT Bip001_L_Hand
                {
                  OFFSET 32.2475 0.153767 1.63968
                  CHANNELS 3 Zrotation Xrotation Yrotation
                  JOINT Bip001_L_Finger0
                  {
                    OFFSET 6.04639 -2.20976 5.90322
                    CHANNELS 3 Zrotation Xrotation Yrotation
                    End Site
                    {
                      OFFSET 4.22375 -1.43895 0.606485
                    }
                  }
                  JOINT Bip001_L_Finger1
                  {
                    OFFSET 11.0826 -0.704819 -0.198153
                    CHANNELS 3 Zrotation Xrotation Yrotation
                    End Site
                    {
                      OFFSET 6.20027 -0.397518 -0.0787166
                    }
                  }
                }
              }
            }
          }
          JOINT Bip001_R_Clavicle
          {
            OFFSET -6.06037 -0.000563197 0.00835105
            CHANNELS 3 Zrotation Xrotation Yrotation
            JOINT Bip001_R_UpperArm
            {
              OFFSET -11.5509 -0.0599978 0.00190698
              CHANNELS 3 Zrotation Xrotation Yrotation
              JOINT Bip001_R_Forearm
              {
                OFFSET -25.9523 0.0806822 -2.15589
                CHANNELS 3 Zrotation Xrotation Yrotation
                JOINT Bip001_R_Hand
                {
                  OFFSET -32.2475 0.153859 1.63989
                  CHANNELS 3 Zrotation Xrotation Yrotation
                  JOINT Bip001_R_Finger0
                  {
                    OFFSET -6.04641 -2.20976 5.90317
                    CHANNELS 3 Zrotation Xrotation Yrotation
                    End Site
                    {
                      OFFSET -4.22376 -1.43895 0.60647
                    }
                  }
                  JOINT Bip001_R_Finger1
                  {
                    OFFSET -11.0826 -0.704794 -0.198182
                    CHANNELS 3 Zrotation Xrotation Yrotation
                    End Site
                    {
                      OFFSET -6.20028 -0.397504 -0.0787333
                    }
                  }
                }
              }
            }
          }
          JOINT Bip001_Head
          {
            OFFSET 1.09673e-005 11.2744 2.05948
            CHANNELS 3 Zrotation Xrotation Yrotation
            End Site
            {
              OFFSET 2.89576e-005 20.8808 -2.77728e-005
            }
          }
        }
      }
    }
  }
}
MOTION
Frames:	13
Frame Time:	0.04
38.3751 94.7023 -31.4555 -2.06354 -4.59894 -21.6964 0.779721 3.17284 -1.85586 2.22403 0.423422 17.0365 -1.13047 15.6669 15.5051 3.76447 -9.76348 0.20647 1.62516 -5.66348 -0.382036 -7.0747 -9.48165 5.65719 -1.41409 16.4956 2.55842 -3.30035 -6.98724 7.04042 3.37482 -11.3641 4.07737 1.66593 6.31838 -3.76347 1.66594 6.3184 -3.76348 2.12107 4.73479 8.81729 -21.563 1.63597 -17.162 -47.901 37.1445 -0.815333 18.1841 -0.111173 -36.7806 9.49762 -0.677279 -7.63449 -6.36111e-015 3.18055e-015 7.95139e-016 -9.54166e-015 7.95139e-016 2.38542e-015 22.1253 -1.91463 8.90413 66.0458 20.6101 -16.5558 -23.0154 2.86358 16.9879 12.8496 -7.4318 7.32863 1.73937e-016 -1.59028e-015 -0 1.73937e-016 0 -1.98785e-016 -3.77363 -6.90563 10.1994 
38.6751 94.5603 -31.4267 -2.08078 -4.70077 -22.2527 0.839445 3.2359 -1.92083 2.02227 0.0689291 16.9121 -1.42298 16.4585 16.2279 4.88929 -9.70194 0.237336 1.92736 -6.29002 -0.520898 -7.40342 -10.0583 5.86229 -1.20393 17.2997 2.94266 -3.37845 -7.26632 7.03359 3.40873 -11.4547 4.10248 1.7917 6.44138 -3.89974 1.79155 6.44141 -3.89892 1.41701 4.62578 9.67027 -20.899 1.86714 -17.6358 -48.4357 37.0949 -0.350856 18.2174 -0.28331 -37.5447 9.35498 -0.577114 -7.61712 -1.27222e-014 3.18055e-015 -3.18055e-015 -9.54166e-015 3.97569e-015 -3.97569e-015 22.5566 -2.27559 8.01489 63.4999 15.8577 -15.1974 -23.3709 0.486306 18.4045 10.6633 -8.09985 7.66047 4.59689e-016 0 -7.95139e-016 8.94531e-016 9.93924e-017 -7.95139e-016 -3.76116 -6.80404 10.8068 
38.9218 94.3911 -31.3828 -2.31728 -4.90609 -22.6639 0.900894 3.32089 -1.92565 2.11886 -0.215334 16.6638 -1.82015 17.5468 16.7945 5.75654 -9.91411 0.271853 2.03055 -6.73488 -0.500792 -7.47949 -10.3686 5.86551 -1.20203 18.0356 3.17055 -3.46994 -7.53633 7.19306 3.5009 -11.7277 4.22249 1.91758 6.60912 -3.91391 1.91781 6.60912 -3.91351 1.10213 4.48633 10.2335 -20.4507 2.09106 -18.065 -49.3036 37.1291 0.158789 18.2965 -0.443117 -37.3629 9.48791 -0.995217 -7.88354 6.36111e-015 -2.38542e-015 -7.15625e-015 3.18055e-015 -7.95139e-016 -4.77083e-015 23.0159 -2.41227 7.45991 60.7131 9.3716 -13.9502 -23.7944 -2.02892 20.6615 7.27651 -9.30683 7.46239 -9.93923e-016 1.59028e-015 1.59028e-015 -1.78906e-015 0 2.38542e-015 -3.90569 -6.64332 11.2965 
39.1506 94.1638 -31.3365 -2.63009 -5.06789 -22.7681 0.959454 3.40664 -1.92563 2.57715 -0.691035 16.4292 -2.5495 19.0827 16.9859 6.86884 -10.2533 0.323169 2.03002 -7.21912 -0.404296 -7.39647 -10.6953 6.05368 -1.21106 18.9778 3.38281 -3.73243 -7.88256 6.99308 3.61725 -12.0149 4.28211 2.03928 6.77844 -3.9254 2.03918 6.77847 -3.92478 1.00916 4.30309 10.7588 -19.958 2.28159 -18.3573 -50.407 37.1324 0.578177 17.6235 -1.17644 -37.3034 9.41774 -0.371931 -6.75643 3.18055e-015 -7.95139e-016 -4.77083e-015 3.18055e-015 0 -6.36111e-015 23.4041 -2.4502 6.98451 58.1271 1.8767 -13.0809 -24.3563 -4.15807 24.779 0.733856 -11.1129 5.82025 -3.18055e-015 -3.18055e-015 1.59028e-015 -3.77691e-015 -3.18056e-015 -0 -4.36438 -6.52201 11.8594 
39.3447 93.7349 -31.2709 -2.89468 -5.37354 -22.5773 1.00292 3.51269 -1.9276 2.97981 -1.59787 16.214 -3.04631 21.5021 16.5393 9.13675 -10.1568 0.38262 1.9349 -8.23102 -0.0793355 -7.33635 -11.4183 6.46606 -1.12474 21.1347 3.41527 -4.12443 -8.80011 6.45006 3.78297 -12.4604 4.42515 2.12986 6.98898 -3.92761 2.12987 6.989 -3.92763 0.731896 3.59786 11.3315 -19.1404 2.88778 -18.4423 -51.5067 37.2783 0.923018 17.1535 -1.65795 -36.7967 8.76419 0.0979442 -7.00623 -6.36111e-015 -3.97569e-015 -3.97569e-016 -3.18055e-015 -3.18056e-015 -6.36111e-015 23.7657 -2.05844 6.30206 56.6491 -3.85736 -13.2815 -25.9157 -6.03086 31.4825 -10.2069 -12.3784 3.01997 3.37934e-015 6.36111e-015 -1.59028e-015 2.38542e-015 3.18056e-015 -3.57812e-015 -4.81649 -5.99685 12.4021 
39.4624 93.098 -31.3137 -3.66927 -5.42257 -20.7401 1.20774 3.56206 -2.10262 4.06732 -3.7548 13.6693 -3.92384 25.6708 17.3223 11.7211 -10.1881 0.435606 1.96746 -9.3895 0.209185 -6.93672 -11.8488 6.07245 -0.838222 23.4426 3.41272 -4.8541 -9.95389 5.24081 3.94394 -12.8804 4.55482 2.5517 7.07966 -4.29875 2.55223 7.07961 -4.29004 0.759138 2.73455 11.6845 -18.6414 3.75288 -18.7111 -52.3987 37.609 1.34627 17.6606 -0.62626 -35.8924 8.30419 -0.429836 -6.99755 6.36111e-015 1.59028e-015 3.97569e-015 3.18055e-015 2.38542e-015 7.55382e-015 23.8253 -1.56205 5.18058 54.8711 -9.71544 -12.9386 -27.6907 -6.87643 39.28 -19.0938 -13.5923 1.85028 -7.95139e-016 -6.36111e-015 3.18055e-015 -4.17448e-015 0 7.95139e-015 -5.37737 -5.39201 12.8443 
39.4255 92.4173 -31.2813 -4.64614 -5.2744 -19.1274 1.38206 3.54652 -2.11538 5.89269 -5.66289 13.7827 -4.54685 29.9957 16.094 12.5251 -11.8243 0.688757 1.92652 -9.61029 0.33436 -6.11352 -12.3405 6.23867 -0.36694 25.7879 3.4545 -5.91504 -10.9088 3.49275 4.18868 -13.4834 4.7119 2.90186 7.03803 -4.32973 2.90219 7.03806 -4.32864 1.27247 1.90547 11.9034 -18.747 4.68952 -18.8989 -52.9202 38.1367 1.94845 17.4565 -0.692237 -35.5714 7.53207 0.0359893 -6.44883 -6.06912e-032 -1.59028e-015 -2.18663e-015 -1.15865e-031 -2.78299e-015 -2.38542e-015 23.3519 -0.945244 4.17019 52.305 -17.0023 -12.0003 -28.3396 -4.82069 47.8102 -25.4881 -14.9978 2.08445 -3.97569e-016 -3.18055e-015 -1.98785e-015 3.97569e-015 0 -3.18055e-015 -6.07486 -4.92019 13.3345 
39.4765 91.7983 -31.1582 -5.21379 -5.52254 -17.0335 1.36484 3.51382 -2.09476 7.1759 -6.96437 14.5949 -4.37581 33.347 13.4973 13.2927 -13.1418 0.861098 1.95249 -9.68397 0.37597 -5.96103 -12.4711 6.04856 0.685289 28.0352 2.97682 -6.9975 -11.8919 1.81129 4.37707 -13.9279 4.81214 2.86581 6.97433 -4.28485 2.86582 6.97436 -4.28487 2.61805 1.31296 11.6149 -19.7186 5.41307 -18.7146 -53.1601 38.6009 2.71039 17.3672 -0.860592 -35.1694 7.30249 0.287193 -6.00131 3.18055e-015 -1.98785e-016 1.98785e-016 6.36111e-015 3.97569e-016 -1.68967e-015 22.0881 -0.0375096 4.14401 50.4111 -23.7086 -10.8084 -28.0152 -3.26048 56.1786 -30.631 -16.156 1.51002 0 3.18055e-015 -0 -1.59028e-015 3.18056e-015 -1.59028e-015 -7.14818 -4.4913 13.5573 
39.6304 91.2533 -30.9326 -5.40217 -6.03787 -14.9154 1.18787 3.47044 -1.96473 8.13476 -7.76106 15.2173 -4.2538 36.0731 11.1739 12.832 -15.1107 1.06924 2.04524 -9.15832 0.244873 -6.16837 -12.3588 5.86702 1.90632 30.159 2.34242 -8.17419 -12.8061 -0.051218 4.47775 -14.2079 4.93106 2.50132 6.89786 -4.01218 2.50133 6.89797 -4.0122 3.40331 0.494994 10.6093 -20.5009 6.05091 -17.7245 -52.829 38.9517 3.10433 17.443 -0.754595 -34.153 7.63859 -0.243382 -5.95772 3.18055e-015 -3.97569e-015 -4.17448e-015 1.27222e-014 -2.38542e-015 -4.37326e-015 21.6429 1.55362 5.8011 48.3866 -28.9724 -9.16665 -26.4768 -2.63869 63.3952 -34.8569 -17.383 1.22431 7.95139e-016 3.18055e-015 -7.95139e-016 8.82782e-032 3.18056e-015 -1.59028e-015 -6.97999 -4.22665 12.8374 
39.7278 90.7996 -30.6616 -5.92082 -6.85563 -12.3999 1.08016 3.50548 -1.8124 9.35088 -8.26097 14.6758 -4.71286 38.5816 9.75734 11.9697 -17.2464 1.23545 1.99852 -8.35719 0.0910775 -5.88704 -11.4498 4.90404 2.239 31.592 1.94681 -9.11125 -13.2977 -1.45853 4.64028 -14.6012 5.04526 2.27743 6.97427 -3.70115 2.27744 6.97429 -3.70117 3.77074 -1.23047 8.76368 -20.7689 7.14803 -15.83 -52.7151 39.238 3.00053 16.9851 -1.46197 -32.2431 8.5531 -0.143785 -6.27815 3.18055e-015 -7.95139e-016 3.97569e-016 3.18055e-015 -3.18056e-015 -1.59028e-015 21.1621 4.2394 8.08684 47.2276 -35.1624 -6.12101 -25.2752 -1.01178 70.6953 -37.2668 -18.6302 0.0960076 0 0 -0 0 0 -7.95139e-016 -6.23346 -3.01111 10.9208 
39.9315 90.4752 -30.4529 -6.15901 -7.66435 -10.1864 0.933232 3.49326 -1.51677 10.0554 -8.50116 14.6454 -4.41438 40.3464 7.65829 10.8454 -19.1045 1.304 1.84565 -7.43579 0.0182242 -5.98718 -10.477 4.7783 3.42561 32.4923 0.924953 -9.88817 -13.4901 -3.08499 4.74811 -14.8432 5.09576 1.96444 6.95965 -3.09902 1.96444 6.95948 -3.09902 4.08273 -2.33407 6.2271 -21.3965 7.4767 -13.6592 -52.4799 38.4726 2.85272 16.8601 -1.10229 -30.7061 8.77556 0.562584 -5.33472 9.54166e-015 -1.59028e-015 7.95139e-016 6.36111e-015 3.18056e-015 -0 19.7532 6.42562 11.0784 49.5877 -40.5019 1.60595 -24.3201 0.298209 74.7761 -40.1403 -20.0007 -0.398349 1.59028e-015 -1.59028e-015 5.56597e-015 1.59028e-015 -1.59028e-015 3.97569e-016 -5.90156 -2.06075 8.43516 
40.0449 90.428 -30.1164 -6.46898 -8.58736 -7.52005 0.842344 3.53972 -1.25336 10.7623 -8.35034 13.4043 -4.78262 41.1178 6.57509 10.1611 -20.3199 1.33923 1.88438 -6.75827 -0.256182 -5.93287 -8.66328 3.07139 3.68876 32.2396 0.926618 -10.386 -13.2319 -4.20551 4.80806 -14.94 5.05902 1.76718 7.06008 -2.56623 1.76718 7.06021 -2.56623 4.44445 -3.48076 3.28925 -22.4631 7.70925 -11.1467 -51.8169 37.2319 3.06669 17.015 -0.515004 -30.3225 8.6964 1.35046 -4.18444 8.82781e-032 1.59028e-015 -3.18055e-015 -3.18055e-015 3.18056e-015 -1.59028e-015 17.5864 8.53088 14.2977 54.2608 -42.415 12.2782 -23.8928 0.297423 75.9403 -42.2867 -20.945 -0.35466 -3.48339e-033 -1.49088e-016 -1.33869e-015 -0 0 1.32005e-015 -5.92279 -0.75176 5.67074 
40.27 90.4477 -29.773 -6.29939 -9.36242 -5.70987 0.657655 3.55812 -0.804862 10.7557 -7.86969 13.973 -3.45672 41.2298 3.55107 9.65007 -21.0916 1.34737 1.84557 -6.19126 -0.413246 -6.06382 -7.20643 2.09573 3.76741 31.9937 0.637165 -10.5993 -13.0237 -4.96171 4.8708 -15.0482 5.03461 1.36944 7.10596 -1.65543 1.36945 7.10583 -1.65543 4.36788 -4.22098 0.222387 -23.1825 7.36955 -8.44987 -51.2388 36.9186 3.03846 16.8025 -0.598388 -29.1951 9.08456 1.6007 -3.5581 -8.82781e-032 -1.59028e-015 -3.18055e-015 3.18055e-015 -3.18056e-015 -3.18055e-015 15.5314 10.0976 18.0327 57.4789 -40.3669 22.0252 -23.4979 -1.26104 74.8536 -43.3114 -22.5011 0.483635 4.77083e-015 -1.59028e-015 -3.97569e-016 1.59028e-015 -3.18056e-015 -1.59028e-015 -6.07 -0.0932567 2.69415 
